<svg width="32" height="32" viewBox="0 0 32 32" fill="none" xmlns="http://www.w3.org/2000/svg">
<path d="M17.34 28.3154C17.34 28.3154 17.2886 28.5295 16.1579 28.5723C15.0272 28.6151 13.7765 28.6665 13.254 28.6151C12.7315 28.5638 12.1662 28.7608 12.1319 27.7243C12.0976 26.6878 12.1319 25.6107 12.1319 24.9361C12.1319 24.2615 12.2646 23.3985 12.7143 23.1886C13.2586 22.9346 13.6668 23.3002 14.0057 23.4392C14.3397 23.5763 14.5089 23.6983 15.3784 23.6983C15.3784 23.6983 15.841 24.435 16.2179 24.9661C16.2179 24.9661 15.4812 25.2744 14.1449 25.2744C14.1449 25.2744 14.2477 25.5399 14.2477 25.7799C14.2477 25.7799 13.7198 25.9512 13.4981 26.0925C13.2765 26.2338 13.0645 26.4491 13.1094 26.5262C13.1544 26.6033 13.2347 26.5294 13.4917 26.3334C13.7487 26.1375 14.5218 25.8227 15.6096 26.1739C16.6975 26.5251 17.34 27.3988 17.34 28.3154ZM23.4475 28.8465C22.8493 29.9961 22.5477 29.746 21.2654 29.0477C19.4316 28.0492 16.8311 25.6342 15.2908 22.5176C15.2907 22.5176 15.2905 22.5175 15.2903 22.5174C12.7825 21.1916 11.9434 18.4792 11.9434 18.4792C11.6546 18.64 11.1946 19.2054 11.1946 19.2054C11.1946 19.2054 11.2691 19.7194 10.9731 20.3233C10.678 20.9272 10.273 21.1199 10.273 21.1199C10.273 21.1199 10.5131 23.0216 10.7012 24.5805C10.8898 26.1398 10.8811 27.8014 10.8811 27.8014L9.25384 21.3682C8.50191 21.1723 7.82299 20.5289 7.78031 19.2866C7.73766 18.0449 8.38421 17.3207 8.38421 17.3207C8.38421 17.3207 8.28553 16.704 8.12723 16.3057C7.96893 15.9073 7.64205 15.3574 7.59067 15.158C7.53927 14.9586 7.61328 14.8691 7.61328 14.8691C7.61328 14.8691 7.3049 14.5988 7.21495 14.1496C7.125 13.6994 7.45242 13.0446 8.03112 12.877C8.60881 12.7105 9.18754 12.9418 9.42498 13.391C9.66245 13.8412 9.52365 14.3999 9.52365 14.3999C9.52365 14.3999 9.66501 14.5628 9.66501 14.7211C9.66501 14.8794 9.63058 14.9436 9.63058 15.068C9.63058 15.1924 9.60696 16.6356 9.60696 16.6356C10.8425 16.4233 11.4551 17.5767 11.4551 17.5767L11.6093 17.4965C10.6842 14.7725 11.0054 11.9396 11.0054 11.9396C9.36744 11.8301 8.22132 10.7801 8.928 9.72698C9.61417 8.70521 11.3138 8.11058 11.3138 8.11058C11.3138 8.11058 10.5902 4.77602 10.4874 4.29647C10.3846 3.81645 10.3671 3.67971 10.7356 3.50806C11.1041 3.33689 12.3931 2.74586 14.5646 2.51459C16.7361 2.28329 18.0534 2.43748 18.8048 2.66258C19.5562 2.88722 19.5305 3.09278 19.5587 3.30502C19.5865 3.51679 19.9355 6.68637 19.9355 6.68637C21.7343 6.76345 23.1991 7.43984 23.2592 8.34802C23.3189 9.25619 22.0622 9.94128 22.0622 9.94128C23.1415 10.7379 22.865 11.7222 22.865 11.7222C22.865 11.7222 23.507 12.3297 23.893 12.9418C24.4542 13.8304 24.6156 15.0973 24.0127 16.1088C23.3662 17.1943 21.9785 17.4065 21.9785 17.4065C21.8757 18.0233 21.5738 19.2567 20.6679 20.7087C20.4838 21.0039 20.199 21.3698 19.8309 21.7208C19.7611 23.0853 18.2973 24.0301 18.2973 24.0301L17.7769 23.3492C18.3435 23.1292 18.6524 22.7559 18.8122 22.4811C18.2049 22.8212 17.4897 23.0343 16.6982 22.9567C17.1663 23.6032 18.7212 25.5799 20.8221 26.4651C20.8221 26.4651 20.7412 25.2254 21.4479 23.8633C22.1546 22.5013 23.4861 21.9208 24.2913 22.8416C25.2573 23.9464 24.3213 27.1675 23.4475 28.8465ZM22.1028 12.5368C22.4195 14.3012 22.165 16.2948 22.165 16.2948C22.6723 16.1859 23.6602 15.7598 23.4304 14.4384C23.2053 13.1437 22.2868 12.4617 22.2868 12.4617C22.2118 12.5131 22.1028 12.5368 22.1028 12.5368Z" fill="#300B08"/>
<path d="M19.5586 6.97304C19.5586 6.97304 18.7898 8.14435 15.9974 8.58995C15.0615 8.73899 14.3158 8.78117 13.7283 8.76574C13.6281 8.76318 13.5325 8.75904 13.4415 8.75341C13.3788 8.7493 13.3182 8.74468 13.2595 8.73953C12.1931 8.64493 11.8117 8.35406 11.8117 8.35406C11.8117 8.35406 10.8702 4.16531 10.8383 4.01779C10.8321 3.98902 10.8234 3.96126 10.8162 3.93454C10.8157 3.93403 10.8157 3.93403 10.8157 3.93403C10.7962 3.86208 10.8116 3.79527 10.8943 3.73615C10.9396 3.70324 11.0048 3.67292 11.0953 3.64516C11.4566 3.55009 12.9096 3.02533 14.7943 2.80948C14.824 2.80638 14.8539 2.80278 14.8842 2.79968C15.0127 2.7858 15.1432 2.7735 15.2753 2.76269C17.3913 2.59152 19.129 2.84543 19.1814 3.20209C19.1814 3.20209 19.4728 5.89373 19.5586 6.97304Z" fill="#FDEFD2"/>
<path d="M10.895 3.73584L10.8945 3.73623L10.895 3.73584H10.895Z" fill="#FDEFD2"/>
<path d="M10.8169 3.83111C10.8173 3.83009 10.8178 3.82911 10.8181 3.82812C10.8178 3.82911 10.8172 3.83009 10.8169 3.83111Z" fill="#FDEFD2"/>
<path d="M10.8164 3.93457C10.8236 3.96129 10.8323 3.98905 10.8385 4.01782C10.8704 4.16534 11.8119 8.35409 11.8119 8.35409C11.8119 8.35409 12.1933 8.64499 13.2598 8.73956L12.3172 4.21156C11.3165 4.13451 10.8349 3.94178 10.8164 3.93457Z" fill="#E7AF7E"/>
<path d="M10.8433 3.78396C10.8441 3.78288 10.8448 3.78184 10.8457 3.78076C10.8448 3.78184 10.8441 3.78291 10.8433 3.78396Z" fill="#FDEFD2"/>
<path d="M13.442 8.75325L13.442 8.75298C13.4266 8.75199 13.4111 8.75104 13.396 8.75C13.4113 8.75107 13.4264 8.75223 13.442 8.75325Z" fill="#FDEFD2"/>
<path d="M13.3547 8.74749C13.3226 8.74505 13.2907 8.74255 13.2598 8.73975C13.2908 8.74249 13.3226 8.74505 13.3547 8.74749Z" fill="#FDEFD2"/>
<path d="M15.0531 4.12054C17.9698 3.76075 19.1818 3.2021 19.1818 3.2021C19.1293 2.8454 17.3916 2.59153 15.2757 2.76269C15.1436 2.77348 15.0131 2.78581 14.8846 2.79968C14.8542 2.80278 14.8244 2.80639 14.7946 2.80948C12.9094 3.02277 11.4529 3.53466 11.0956 3.64516C11.0048 3.67313 10.9399 3.7036 10.8947 3.73615C10.8946 3.73624 10.8945 3.73633 10.8943 3.73642C10.8743 3.75087 10.8581 3.76576 10.8455 3.78104C10.8446 3.78208 10.844 3.78309 10.8432 3.78413C10.8382 3.79045 10.8338 3.79682 10.83 3.80329C10.829 3.80495 10.828 3.80659 10.8271 3.80826C10.8235 3.81484 10.8205 3.82145 10.818 3.82815C10.8176 3.82911 10.8171 3.83006 10.8168 3.83104C10.814 3.839 10.8119 3.84704 10.8105 3.85517C10.8105 3.85553 10.8105 3.85588 10.8104 3.85624C10.8092 3.86369 10.8087 3.87119 10.8086 3.87879C10.8086 3.88069 10.8086 3.88257 10.8087 3.88445C10.8088 3.89082 10.8093 3.89722 10.8101 3.90366C10.8104 3.90559 10.8105 3.9075 10.8108 3.90944C10.8121 3.91757 10.8138 3.92576 10.816 3.93404C10.816 3.93404 10.816 3.93404 10.8165 3.93454C10.835 3.94175 11.3166 4.13448 12.3173 4.21156L13.2599 8.73956C13.2908 8.74236 13.3227 8.74486 13.3548 8.7473C13.3683 8.74829 13.382 8.74921 13.3957 8.75019C13.4109 8.75123 13.4263 8.75219 13.4417 8.75317C13.533 8.75889 13.6282 8.76333 13.7286 8.76577L12.8132 4.23777C13.4151 4.2557 14.1588 4.23104 15.0531 4.12054Z" fill="#FDEFD2"/>
<path d="M19.6015 7.49121L19.7128 8.69046C19.7128 8.69046 18.2994 9.85543 15.9395 10.1595C13.6215 10.4582 12.149 9.86398 12.149 9.86398L11.9092 8.75331C11.9092 8.75331 13.1092 9.40972 16.1829 8.86386C18.41 8.46833 19.6015 7.49121 19.6015 7.49121Z" fill="#320C09"/>
<path d="M21.6145 9.72706C21.6145 9.72706 20.9315 9.36316 20.4751 9.633C20.0187 9.90284 20.2566 10.3911 20.2566 10.3911C20.2566 10.3911 18.0168 11.2175 15.0872 11.5948C13.5335 11.7947 12.2235 11.7402 11.2356 11.565C11.1555 11.5506 11.0773 11.5357 11.0018 11.5198C10.9252 11.5038 10.8507 11.4869 10.7783 11.4699C10.142 11.3167 9.68092 11.1117 9.42499 10.9051C8.75684 10.3654 9.54475 9.31592 11.3868 8.56244C11.3868 8.56244 11.5322 9.43362 11.7507 9.84479C11.7933 9.92497 11.8642 10.0046 11.967 10.0807C12.039 10.1341 12.1269 10.186 12.2312 10.2344C12.3078 10.2698 12.3936 10.3037 12.4887 10.3356C13.0253 10.5134 13.8594 10.6178 15.0616 10.5494C17.1771 10.4297 18.7662 9.68444 19.3573 9.33751C19.9483 8.99059 20.1025 8.53421 20.0702 8.11685C20.0383 7.69951 20.0064 7.14648 20.0064 7.14648C20.0064 7.14648 21.1777 7.14905 22.2483 7.6887C23.3188 8.22833 22.8306 9.01623 21.6145 9.72706Z" fill="#FDEFD2"/>
<path d="M11.967 10.0807C11.8643 10.0047 11.7933 9.925 11.7507 9.84485C11.5322 9.43368 11.3868 8.5625 11.3868 8.5625C9.54475 9.31597 8.75684 10.3655 9.42499 10.9051C9.68092 11.1118 10.142 11.3168 10.7783 11.47C10.9088 10.9241 11.7204 10.2689 11.967 10.0807Z" fill="#E7AF7E"/>
<path d="M12.2313 10.2343C12.1269 10.1859 12.039 10.134 11.9671 10.0806C11.7204 10.2687 10.9089 10.924 10.7783 11.4698C10.8508 11.4868 10.9253 11.5037 11.0019 11.5196C11.0774 11.5356 11.1555 11.5505 11.2357 11.5649C11.375 11.2925 11.782 10.6099 12.4888 10.3355C12.3937 10.3036 12.3078 10.2697 12.2313 10.2343Z" fill="#F2CFAC"/>
<path d="M21.092 11.0335C21.092 11.0335 20.3278 10.4333 20.4817 9.9991C20.6356 9.56488 21.6028 9.84169 22.0493 10.2882C22.4958 10.7347 22.8427 11.4414 22.3127 11.9714C21.7827 12.5015 20.9443 12.2027 20.3147 11.8494C19.6851 11.496 19.4795 11.1491 19.4795 11.1491L20.5438 10.7422C20.5438 10.7422 20.7965 11.0035 21.092 11.0335Z" fill="white"/>
<path d="M9.29248 13.9929C9.29248 14.2813 9.15729 14.5382 8.94711 14.7037C8.88027 14.7562 8.80626 14.7993 8.72608 14.8312C8.62178 14.8739 8.50764 14.8969 8.38842 14.8969C7.88936 14.8969 7.48486 14.4924 7.48486 13.9929C7.48486 13.8166 7.53523 13.6522 7.62312 13.5129C7.63185 13.4985 7.64162 13.4841 7.65139 13.4702C7.81535 13.2394 8.08415 13.0894 8.38842 13.0894C8.88748 13.0894 9.29248 13.4939 9.29248 13.9929Z" fill="#320C09"/>
<path d="M9.29243 13.9929C9.29243 14.2812 9.15724 14.5382 8.94706 14.7037C8.88022 14.7561 8.80621 14.7993 8.72603 14.8312C8.74557 14.7983 8.76612 14.7607 8.78617 14.7186C8.93008 14.4148 9.05035 13.8968 8.67105 13.5175C8.28505 13.1315 7.822 13.3617 7.65137 13.4702C7.81533 13.2394 8.08413 13.0894 8.3884 13.0894C8.88743 13.0894 9.29243 13.4938 9.29243 13.9929Z" fill="#320C09"/>
<path d="M8.94711 14.7036C8.88027 14.756 8.80626 14.7992 8.72608 14.831C8.62178 14.8737 8.50764 14.8968 8.38842 14.8968C7.88936 14.8968 7.48486 14.4923 7.48486 13.9927C7.48486 13.8164 7.53523 13.652 7.62312 13.5127C7.59795 13.7188 7.56814 14.2877 7.96438 14.5242C8.26455 14.703 8.58425 14.7267 8.78621 14.7184C8.85612 14.7154 8.9116 14.7087 8.94711 14.7036Z" fill="#320C09"/>
<path d="M7.75195 15.0994C7.75195 15.0994 8.0111 15.4894 8.73545 15.3397C9.31579 15.2198 9.49968 14.7233 9.49968 14.7233L9.43031 14.5952C9.43031 14.5952 9.22796 15.0035 8.67546 15.1363C8.12294 15.2691 7.75979 14.9903 7.75979 14.9903L7.75195 15.0994Z" fill="#F0B776"/>
<path d="M9.60484 18.0813C9.60484 18.0813 9.54727 18.1358 9.48871 18.2437C9.44758 18.3183 9.40544 18.4174 9.38128 18.5413H8.91513C8.91513 18.5413 8.42274 16.3827 7.99463 15.5434C7.99463 15.5434 8.16836 15.5932 8.41301 15.5927C8.62885 15.5927 8.90024 15.5531 9.15516 15.4056C9.24612 15.3532 9.33506 15.2864 9.41881 15.2031C9.41881 15.2031 9.33503 16.1149 9.41881 16.8154C9.50203 17.516 9.60484 18.0813 9.60484 18.0813Z" fill="#ECC08A"/>
<path d="M9.06471 18.5409H8.91513C8.91513 18.5409 8.42274 16.3823 7.99463 15.543C7.99463 15.543 8.16836 15.5928 8.413 15.5923C8.51886 16.0292 8.93878 17.772 9.06471 18.5409Z" fill="#E6AC6F"/>
<path d="M9.60472 18.0813C9.60472 18.0813 9.54714 18.1358 9.48859 18.2437C9.39709 18.0587 9.23212 17.648 9.14217 16.9655C9.04913 16.2603 9.11289 15.676 9.15501 15.4056C9.24597 15.3532 9.3349 15.2864 9.41866 15.2031C9.41866 15.2031 9.33487 16.1149 9.41866 16.8154C9.5019 17.516 9.60472 18.0813 9.60472 18.0813Z" fill="#F0CDA0"/>
<path d="M9.9736 17.6935C9.9736 17.6935 9.36544 18.5073 9.71663 18.9699C10.0678 19.4324 11.2842 18.6786 11.19 17.822C11.0957 16.9654 9.9507 16.9141 9.69095 16.9141L9.80229 17.7449L9.9736 17.6935Z" fill="white"/>
<path d="M8.43147 17.7964L8.59423 18.4474L8.34581 18.4045C8.34581 18.4045 8.67132 18.7043 9.41657 18.7043C9.41657 18.7043 9.40802 19.1412 9.85344 19.2868C10.2989 19.4324 10.9242 18.9613 10.9242 18.9613C10.9242 18.9613 10.9413 20.6895 9.82774 20.9486C8.58187 21.2385 8.10596 20.0406 8.10596 19.3725C8.10596 18.7044 8.26867 18.0448 8.43147 17.7964Z" fill="white"/>
<path d="M10.5301 25.6429L9.60498 21.3385C9.62657 21.3354 9.65329 21.3303 9.68257 21.3236C9.80287 21.2964 9.96474 21.2485 9.96474 21.2485L10.5301 25.6429Z" fill="#ECC08A"/>
<path d="M10.5301 25.643L9.60498 21.3386C9.62657 21.3355 9.65329 21.3304 9.68257 21.3237L10.5301 25.643Z" fill="#E6AC6F"/>
<path d="M21.4899 26.825C21.4899 26.825 21.4899 25.5529 21.9996 24.4265C22.5097 23.2991 23.2673 22.8246 23.2673 22.8246L23.1046 22.7476C23.1046 22.7476 22.2737 22.9446 21.7512 24.3323C21.316 25.4878 21.3229 26.4652 21.4899 26.825Z" fill="white"/>
<path d="M21.7087 12.6138C21.7087 12.6138 21.593 12.6261 21.4008 12.6102C20.9074 12.5701 19.9083 12.346 19.0489 11.2646C19.0489 11.2646 17.4587 12.0361 14.0625 12.1332C13.7685 12.1415 13.4607 12.1446 13.1394 12.142C12.6023 12.1379 12.0267 12.1163 11.4125 12.0741C11.4125 12.0741 11.1468 14.4383 11.9691 17.2651C11.9691 17.2651 13.1769 16.9053 14.0162 16.9398C14.0162 16.9398 13.9993 17.4794 13.8281 17.7534C13.8281 17.7534 13.2196 17.6336 12.3032 18.2674C12.3032 18.2674 12.9585 19.985 14.0162 21.0428C14.6129 21.639 15.2502 22.0804 15.9138 22.3179C16.4272 22.5019 16.9561 22.5641 17.4942 22.4818C17.7321 22.4453 17.9372 22.3857 18.1109 22.305C18.8397 21.9684 19.0181 21.2709 18.7277 20.4347C18.3679 19.3981 18.8048 18.3383 19.3897 17.8624C19.3897 17.8624 19.3804 17.9246 19.2905 18.3403C19.2036 18.7418 19.1836 20.186 19.9982 20.6419C19.9982 20.6419 19.9987 20.6419 19.9982 20.6424C20.0434 20.6676 20.0907 20.6897 20.1411 20.7087C20.1411 20.7087 21.4517 18.9355 21.7086 16.6741C21.9656 14.4126 21.7087 12.6138 21.7087 12.6138ZM20.1935 15.0201C19.9052 15.0664 19.5973 14.6414 19.5053 14.0698C19.4133 13.4988 19.5727 12.9982 19.861 12.952C20.1494 12.9052 20.4577 13.3308 20.5492 13.9023C20.6412 14.4733 20.4818 14.9739 20.1935 15.0201ZM19.4092 12.3732C19.4879 12.1703 19.9237 12.1903 20.3621 12.5634C20.3621 12.5634 20.5512 12.7489 20.507 12.8142C20.4628 12.8795 20.3179 12.7608 20.1401 12.6765C19.9669 12.5943 19.7633 12.623 19.6246 12.6498C19.4858 12.6765 19.3306 12.5757 19.4092 12.3732ZM18.8336 15.3979C18.8531 15.3686 18.8845 15.3296 18.9271 15.2864C18.9497 15.2658 18.9724 15.2417 19.0011 15.2216C19.015 15.2108 19.0294 15.2 19.0438 15.1887C19.0587 15.1779 19.0757 15.1687 19.0916 15.1589C19.124 15.1373 19.1615 15.1224 19.199 15.1049C19.2376 15.0916 19.2771 15.0772 19.3188 15.0695C19.3609 15.0628 19.4026 15.0546 19.4447 15.0577C19.4658 15.0582 19.4863 15.0577 19.5069 15.0597C19.5269 15.0634 19.547 15.0674 19.5665 15.071C19.6061 15.0762 19.641 15.0926 19.6739 15.1065C19.6904 15.1137 19.7073 15.1183 19.7217 15.1276C19.7356 15.1368 19.7489 15.1456 19.7618 15.1543C19.787 15.1718 19.8116 15.1856 19.8286 15.2041C19.8466 15.2211 19.8615 15.237 19.8733 15.2499C19.8944 15.2725 19.9067 15.2864 19.9093 15.29C19.9057 15.2889 19.8877 15.2818 19.8594 15.2684C19.844 15.2612 19.825 15.253 19.8045 15.2422C19.7844 15.2309 19.7572 15.2257 19.7315 15.2149C19.7186 15.2103 19.7047 15.2057 19.6909 15.2005C19.6765 15.1954 19.6611 15.1933 19.6462 15.1898C19.6153 15.1836 19.584 15.1749 19.5501 15.1743C19.5331 15.1728 19.5162 15.1712 19.4992 15.1697C19.4822 15.1697 19.4647 15.1718 19.4473 15.1723C19.4123 15.1718 19.3774 15.1795 19.3424 15.1856C19.3244 15.1867 19.3075 15.1934 19.29 15.198C19.2731 15.2036 19.255 15.2062 19.2386 15.2124C19.2052 15.2263 19.1713 15.2355 19.1399 15.2514C19.1081 15.2653 19.0777 15.2797 19.049 15.2951C19.0202 15.3095 18.9945 15.326 18.9688 15.3393C18.9451 15.3553 18.9215 15.3676 18.902 15.381C18.8819 15.3938 18.8645 15.4052 18.8501 15.4144C18.8249 15.4313 18.809 15.4416 18.8054 15.4442C18.8069 15.4406 18.8156 15.4236 18.8336 15.3979ZM18.5324 14.4594C18.6244 15.0309 18.4651 15.5315 18.1767 15.5778C17.8884 15.624 17.5806 15.1985 17.4886 14.6275C17.3965 14.0564 17.5559 13.5559 17.8442 13.5091C18.1325 13.4629 18.4404 13.8884 18.5324 14.4594ZM16.9587 13.0506C17.3184 12.6009 17.7425 12.4982 17.8581 12.6821C17.9737 12.8666 17.8411 12.9951 17.6998 12.9951C17.5584 12.9951 17.3529 13.0054 17.1987 13.119C17.0404 13.2357 16.9201 13.3806 16.8646 13.3246C16.8091 13.2691 16.9587 13.0506 16.9587 13.0506ZM17.7404 16.8123C17.7399 16.8211 17.7389 16.8293 17.7378 16.8375C17.7342 16.8638 17.7363 16.8884 17.7342 16.912C17.7342 16.9352 17.7311 16.9573 17.7327 16.9763C17.7337 16.9953 17.7332 17.0128 17.7332 17.0266C17.7332 17.0554 17.7317 17.0724 17.7317 17.0724C17.7317 17.0724 17.7235 17.0585 17.7106 17.0323C17.7039 17.0194 17.6962 17.0035 17.6885 16.985C17.6787 16.9665 17.6736 16.9444 17.6669 16.9202C17.6612 16.8961 17.6515 16.8699 17.6499 16.8411C17.6474 16.8123 17.6412 16.7815 17.6422 16.7496C17.6438 16.7182 17.6433 16.6849 17.6489 16.6515C17.6556 16.6186 17.6597 16.5841 17.671 16.5523L17.6874 16.5034C17.6931 16.4875 17.7013 16.4726 17.708 16.4572C17.7213 16.4258 17.7393 16.3986 17.7563 16.3713C17.7738 16.3451 17.7933 16.321 17.8123 16.2994C17.8313 16.2778 17.8508 16.2583 17.8704 16.2423C17.9074 16.2084 17.9434 16.1868 17.9691 16.1729C17.9912 16.1601 18.0066 16.1555 18.0102 16.1544C18.0081 16.1575 17.9989 16.1699 17.9845 16.1904C17.968 16.2135 17.9459 16.2465 17.9213 16.286C17.9089 16.3056 17.8976 16.3282 17.8837 16.3503C17.8714 16.3734 17.8595 16.3986 17.8467 16.4232C17.8359 16.4494 17.8226 16.4751 17.8133 16.5029C17.8122 16.506 17.8107 16.5085 17.8097 16.5116C17.9731 16.5841 18.5606 16.8092 19.2631 16.6504C19.9966 16.4844 20.6077 15.8219 20.6077 15.8219C20.6077 15.8219 20.6252 16.0316 20.2911 16.3143C19.9607 16.5939 18.7832 17.2142 17.7404 16.8123Z" fill="#99635A"/>
<path d="M21.7085 16.6742C21.4515 18.9356 20.1409 20.7088 20.1409 20.7088C20.0906 20.6898 20.0433 20.6677 19.998 20.6425C19.9986 20.642 19.998 20.642 19.998 20.642C20.1671 20.3326 20.864 18.969 21.2459 16.8721C21.6242 14.7977 21.4536 13.0446 21.4006 12.6104C21.5928 12.6263 21.7085 12.6139 21.7085 12.6139C21.7085 12.6139 21.9655 14.4128 21.7085 16.6742Z" fill="#AE7D75"/>
<path d="M15.0531 18.4216C15.8246 19.9522 16.7543 20.5195 16.7831 20.5371C15.4129 18.858 15.0187 17.3166 14.9503 15.2777C14.8953 13.6335 14.2935 12.5069 14.0627 12.1333C13.7687 12.1415 13.4609 12.1446 13.1396 12.142C13.2692 12.419 13.5385 13.0985 13.6911 14.2051C13.8967 15.6976 14.2693 16.8669 15.0531 18.4216Z" fill="#854F46"/>
<path d="M16.7834 20.5376C16.7834 20.5376 16.7834 20.5376 16.7829 20.5371C16.7541 20.5196 15.8243 19.9521 15.0529 18.4216C14.2691 16.8669 13.8965 15.6976 13.6909 14.2051C13.5382 13.0985 13.269 12.4191 13.1394 12.142C12.6023 12.138 12.0267 12.1163 11.4125 12.0742C11.4125 12.0742 11.1468 14.4384 11.9691 17.2652C11.9691 17.2652 13.1769 16.9054 14.0162 16.9398C14.0162 16.9398 13.9993 17.4795 13.8281 17.7535C13.8281 17.7535 13.2196 17.6337 12.3032 18.2674C12.3032 18.2674 12.9585 19.9851 14.0162 21.0428C14.6129 21.639 15.2502 22.0805 15.9138 22.318C16.4272 22.502 16.9561 22.5642 17.4942 22.4819C17.7321 22.4454 17.9372 22.3858 18.1109 22.3051L16.7834 20.5376Z" fill="#753F37"/>
</svg>
