<svg width="140" height="89" viewBox="0 0 140 89" fill="none" xmlns="http://www.w3.org/2000/svg">
<path d="M87.5521 78.7985L85.8636 78.6727C85.823 78.6696 85.7937 78.6343 85.7982 78.5937L85.9449 77.2842C85.9505 77.2353 85.9365 77.187 85.9058 77.15L85.6639 76.8561C85.633 76.8191 85.5886 76.7962 85.5398 76.7926L83.6991 76.6553C83.6505 76.6518 83.6014 76.6678 83.5632 76.6997L83.26 76.9527C83.2217 76.9845 83.1969 77.0301 83.1916 77.0787L82.2629 85.3672C82.2575 85.4158 82.2716 85.4641 82.302 85.5012L82.5442 85.795C82.5747 85.8321 82.6192 85.8549 82.6679 85.8586L84.5089 85.9959C84.5577 85.9994 84.6063 85.9834 84.6446 85.9515L84.9477 85.6985C84.986 85.6664 85.0108 85.6211 85.0162 85.5724L85.1628 84.2629C85.1675 84.2221 85.2041 84.1918 85.2446 84.1946L86.9332 84.3204C86.9738 84.3234 87.0029 84.3587 86.9986 84.3996L86.7816 86.3343C86.7662 86.4709 86.6975 86.5979 86.5903 86.6875L85.3066 87.759C85.1993 87.8485 85.0625 87.893 84.926 87.8829L81.8384 87.6528C81.7019 87.6425 81.5773 87.5786 81.4916 87.4747L80.4673 86.231C80.3818 86.1271 80.3424 85.9921 80.3578 85.8555L81.4262 76.3171C81.4415 76.1803 81.5103 76.0533 81.6175 75.9637L82.9015 74.8922C83.0086 74.8027 83.1453 74.7582 83.2816 74.7682L86.3695 74.9984C86.5059 75.0084 86.6305 75.0726 86.716 75.1765L87.7406 76.4199C87.8263 76.5238 87.8654 76.6589 87.8501 76.7956L87.6335 78.7304C87.6292 78.7711 87.5929 78.8017 87.5521 78.7985Z" fill="#300B08"/>
<path d="M94.5049 75.2602L95.6921 76.3935C95.7913 76.4882 95.8487 76.6181 95.8518 76.7554L96.1099 87.9202C96.1109 87.9608 96.0785 87.9946 96.0378 87.9956L94.3403 88.0347C94.2996 88.0357 94.2659 88.0034 94.2648 87.9626L94.1615 83.4977C94.1608 83.4569 94.127 83.4246 94.0862 83.4256L91.4662 83.486C91.4254 83.4869 91.393 83.5208 91.3941 83.5616L91.4972 88.0265C91.4981 88.0674 91.4657 88.101 91.4252 88.102L89.7275 88.1413C89.6868 88.142 89.6531 88.1098 89.6522 88.0692L89.3942 76.9044C89.3911 76.7674 89.4423 76.6346 89.5371 76.5355L90.6704 75.3485C90.765 75.2493 90.8951 75.1919 91.0321 75.1887L94.136 75.1171C94.2731 75.1141 94.4058 75.1655 94.5049 75.2602ZM91.4234 81.641L94.0437 81.5807C94.0845 81.5797 94.1166 81.5458 94.1158 81.505L94.0215 77.4246C94.0202 77.3757 93.9998 77.3292 93.9644 77.2954L93.684 77.0279C93.6486 76.994 93.6012 76.9755 93.5522 76.9768L91.7016 77.0195C91.6527 77.0208 91.6061 77.0413 91.5724 77.0766L91.3048 77.3569C91.2711 77.3925 91.2527 77.4398 91.2538 77.4887L91.348 81.569C91.3488 81.6098 91.3828 81.6423 91.4234 81.641Z" fill="#300B08"/>
<path d="M103.045 76.0068L99.5369 76.6022C99.4971 76.6092 99.4703 76.6463 99.4772 76.6858L100.078 80.1676C100.084 80.207 100.122 80.2337 100.162 80.2265L102.757 79.7862C102.796 79.7795 102.834 79.806 102.841 79.8456L103.129 81.5149C103.135 81.5542 103.109 81.5918 103.069 81.5985L100.474 82.039C100.434 82.0455 100.408 82.0829 100.415 82.1224L101.328 87.4166C101.334 87.4559 101.307 87.4934 101.268 87.5002L99.5857 87.786C99.5461 87.7924 99.5081 87.7659 99.5014 87.7265L97.339 75.1838C97.332 75.1442 97.3587 75.1069 97.3984 75.0997L102.733 74.1949C102.773 74.1882 102.81 74.2145 102.817 74.2541L103.105 75.9233C103.111 75.9628 103.085 76.0003 103.045 76.0068Z" fill="#300B08"/>
<path d="M105.826 75.3067L107.053 78.6028C107.067 78.6401 107.108 78.658 107.146 78.6434L109.608 77.6743C109.646 77.6595 109.687 77.6776 109.701 77.7147L110.29 79.2957C110.304 79.3327 110.284 79.3746 110.247 79.3895L107.784 80.3586C107.747 80.3732 107.728 80.4152 107.741 80.4523L108.969 83.7484C108.982 83.7854 109.024 83.8035 109.062 83.7889L112.39 82.4789C112.428 82.4644 112.469 82.4825 112.483 82.5195L113.072 84.1005C113.085 84.1376 113.066 84.1794 113.029 84.1942L107.968 86.1855C107.931 86.2003 107.889 86.1822 107.875 86.1449L103.455 74.2735C103.441 74.2364 103.46 74.1945 103.498 74.1798L108.558 72.1885C108.596 72.1737 108.637 72.1918 108.651 72.2288L109.24 73.8098C109.254 73.8469 109.234 73.8888 109.197 73.9037L105.868 75.2135C105.831 75.2278 105.812 75.2697 105.826 75.3067ZM104.482 72.8658C104.444 72.8493 104.427 72.8049 104.445 72.7667L105.482 70.5053C105.5 70.4673 105.544 70.4499 105.581 70.4664L106.611 70.9153C106.656 70.9349 106.669 70.9912 106.639 71.0299L105.046 73.0468C105.024 73.0741 104.987 73.0839 104.956 73.0702L104.482 72.8658Z" fill="#300B08"/>
<path d="M128.365 17.3546C128.365 17.3546 130.369 12.8898 130.931 10.253C131.493 7.61626 131.107 5.64777 127.415 3.43297C123.724 1.21818 120.718 -1.04062 116.79 0.514958C112.861 2.07066 112.413 3.54714 112.413 3.54714C112.413 3.54714 111.754 1.54321 108.695 2.387C105.637 3.2308 102.385 3.76692 101.084 4.03059C99.7831 4.29425 98.9393 5.3137 98.9393 5.3137C98.9393 5.3137 97.6212 4.62808 95.4064 4.82145C93.1916 5.01483 91.7501 6.03428 91.7501 6.03428C91.7501 6.03428 90.4757 5.31358 88.63 6.07829C86.7844 6.84287 83.9368 7.87124 82.4865 8.42485C81.0365 8.97858 80.6673 9.71688 80.9046 10.1914C80.9046 10.1914 78.6897 8.49526 73.3813 9.33893C68.0728 10.1827 65.2735 12.503 64.353 14.1553C64.353 14.1553 63.0455 12.0458 57.9128 12.5381C52.7801 13.0303 50.7059 15.3506 50.7059 15.3506C50.7059 15.3506 49.9328 13.9443 48.0694 13.0654C46.206 12.1867 44.9756 11.624 43.3584 10.5342C41.7414 9.44429 37.4524 9.42669 29.9642 10.8505C22.476 12.2743 21.3863 13.6149 21.3863 15.0804C21.3863 16.5458 22.0191 17.5301 22.0191 17.5301C22.0191 17.5301 21.9487 31.1002 21.9487 35.5298C21.9487 39.9594 20.7885 40.9613 18.6265 41.7524C16.4644 42.5435 15.7261 43.2289 15.7261 43.8618C15.7261 43.8618 14.9351 43.2817 11.3492 43.8618C7.7633 44.4418 -2.27362 44.0729 0.468503 49.6273C3.21062 55.1817 14.1089 78.4548 16.5698 82.6032C19.0307 86.7516 22.7573 87.4546 28.4525 86.1189C34.1477 84.7829 36.7842 85.4507 37.6983 82.8844C37.6983 82.8844 37.6631 84.4312 42.585 83.2008C47.507 81.9703 50.6004 82.533 52.7451 79.7909C54.8896 77.0486 56.1551 75.326 56.1551 75.326C56.1551 75.326 63.1334 81.0388 72.0982 77.4004C81.0629 73.7617 82.803 69.0158 82.803 69.0158C82.803 69.0158 88.6037 75.0682 97.4629 72.5692C106.322 70.0703 109.539 64.3223 109.539 64.3223C109.539 64.3223 113.213 67.9082 117.713 68.0488C122.212 68.1893 124.744 65.3771 124.744 65.3771C124.744 65.3771 125.032 67.4073 129.414 65.5352C133.796 63.6632 136.978 63.2324 139.123 61.4044C141.267 59.5763 138.806 56.2015 138.806 56.2015C138.806 56.2015 138.701 25.9325 138.701 24.4032C138.701 22.8739 139.193 22.0302 136.661 20.5185C134.13 19.0067 132.205 18.1444 131.054 17.5214C130.092 17.0008 129.284 17.0451 128.365 17.3546Z" fill="#300B08"/>
<path d="M34.1853 12.755C36.9794 12.1698 39.1518 12.1763 40.7014 12.7734C42.2512 13.3699 43.022 14.4883 43.0138 16.1278C43.0103 16.86 42.8576 17.5427 42.5568 18.1759C42.2554 18.8092 41.8449 19.3857 41.325 19.9036C40.8049 20.4222 40.1984 20.8634 39.5071 21.2275C38.8153 21.5917 38.0927 21.8524 37.3393 22.0101C36.7105 22.142 36.0597 22.1979 35.3857 22.1778C34.7108 22.1587 34.0451 22.0417 33.3877 21.8285C34.4877 21.335 35.3535 20.6201 35.986 19.6828C36.6177 18.7466 36.9366 17.7511 36.9416 16.6971C36.947 15.6433 36.6604 14.8331 36.0832 14.2664C35.5052 13.7006 34.7616 13.5116 33.8511 13.7024C33.0977 13.86 32.4763 14.247 31.9873 14.8607C31.4976 15.4753 31.2513 16.1926 31.2473 17.0116L31.1705 32.5148C31.1632 34.0381 31.526 35.1761 32.2595 35.9286C32.9925 36.6824 33.9559 36.9336 35.1493 36.6838C35.8394 36.5395 36.4842 36.2508 37.0827 35.819C37.6803 35.3864 38.1932 34.8557 38.6196 34.2245C39.0459 33.5946 39.3789 32.8805 39.618 32.0853C39.8573 31.2891 39.979 30.4521 39.9831 29.5735C39.9935 27.5245 39.3576 26.0413 38.0761 25.1246C36.7943 24.2086 35.0237 23.9867 32.763 24.46C34.0857 23.3648 35.7199 22.6123 37.6672 22.2048C38.9227 21.9424 40.0683 21.8781 41.1027 22.0126C42.137 22.147 43.0295 22.4501 43.7801 22.9218C44.5305 23.394 45.1075 24.0259 45.5114 24.8188C45.9146 25.6118 46.1148 26.5502 46.1093 27.6332C46.0976 30.0048 45.1229 32.0735 43.1851 33.8391C41.2472 35.6049 38.583 36.8424 35.1921 37.5526L24.0771 39.8791L24.4578 39.0097C24.8384 38.1405 25.0311 37.2665 25.0354 36.3882L25.1264 17.9421C25.1305 17.0637 24.9462 16.2686 24.5733 15.5572L24.2006 14.8456L34.1853 12.755Z" fill="#FDEFD2"/>
<path d="M55.8469 16.5588C55.3731 16.6725 54.954 16.9267 54.5907 17.3202C54.227 17.7144 53.9095 18.2064 53.6401 18.7963C53.3698 19.3868 53.1632 20.049 53.0186 20.7838C52.8747 21.5186 52.801 22.2805 52.7983 23.069C52.7909 25.3461 53.313 26.9423 54.3659 27.8549C55.4196 28.7687 56.7348 29.0353 58.3135 28.6554C59.1959 28.4428 60.1038 28.0427 61.0362 27.4532C61.9673 26.8644 62.845 26.1203 63.6689 25.2224C63.2512 27.3356 62.3383 29.1306 60.9313 30.607C59.5228 32.084 57.8249 33.0614 55.8371 33.5398C54.7013 33.813 53.6206 33.8768 52.5969 33.7289C51.5727 33.5815 50.6672 33.2312 49.8813 32.6757C49.0948 32.1214 48.4744 31.3595 48.021 30.3887C47.5662 29.4191 47.3422 28.2481 47.3467 26.875C47.3504 25.5614 47.5753 24.2901 48.0212 23.0587C48.4668 21.829 49.0934 20.7002 49.9006 19.6747C50.7079 18.6489 51.6878 17.7643 52.842 17.0193C53.9952 16.2756 55.2654 15.7355 56.6547 15.4013C58.5478 14.9455 60.0606 14.9757 61.1939 15.4905C62.3274 16.0049 62.8919 16.9199 62.8875 18.2338C62.8829 19.5475 62.3356 20.7009 61.2444 21.6925C60.1532 22.6843 58.8188 23.3702 57.2411 23.7498C55.8525 24.0844 54.4498 24.1152 53.0317 23.8437C54.4531 23.2108 55.5668 22.4176 56.3739 21.4643C57.1815 20.5118 57.5867 19.4808 57.59 18.3709C57.5923 17.6412 57.4288 17.1265 57.0991 16.8261C56.7686 16.5265 56.3511 16.4373 55.8469 16.5588Z" fill="#FDEFD2"/>
<path d="M74.8305 15.5701C74.8395 14.5415 74.6669 13.8258 74.3143 13.4234C73.9609 13.0211 73.5525 12.8738 73.0863 12.9819C72.7137 13.0683 72.3701 13.2952 72.0578 13.6608C71.7445 14.027 71.5155 14.4982 71.3709 15.0739C71.2264 15.6509 71.197 16.3247 71.2835 17.0968C71.3699 17.8685 71.6101 18.7086 72.005 19.6138C71.413 19.9271 70.7294 20.1737 69.9532 20.3537C69.3942 20.4835 68.8505 20.5507 68.3236 20.5556C67.7962 20.5609 67.3252 20.479 66.908 20.3116C66.4909 20.1443 66.1593 19.8838 65.915 19.5298C65.6694 19.1759 65.5505 18.7197 65.5552 18.161C65.5652 17.0144 66.1486 15.8666 67.3057 14.7184C68.4623 13.5701 70.2986 12.704 72.8151 12.1207C78.2191 10.8675 80.9005 12.5935 80.8598 17.2968L80.8023 23.867C80.7945 24.7489 80.9735 25.5438 81.3396 26.2511L81.7049 26.9582L74.7063 29.7251L74.741 25.8003C73.9527 27.2747 72.9968 28.4714 71.8726 29.3919C70.7494 30.3127 69.6278 30.9025 68.5094 31.1619C67.2986 31.4426 66.3001 31.3003 65.5145 30.7343C64.729 30.1681 64.3422 29.2237 64.3538 27.9009C64.3599 27.1955 64.5134 26.4556 64.8147 25.6817C65.116 24.9077 65.6568 24.1516 66.4389 23.4126C67.2198 22.6747 68.2881 21.972 69.6422 21.3058C70.9964 20.6396 72.7137 20.0656 74.7948 19.583L74.8305 15.5701ZM74.9586 20.2289C73.4364 20.8019 72.2495 21.5445 71.396 22.4574C70.5427 23.3708 70.1352 24.3702 70.174 25.4554C70.1984 26.131 70.3974 26.6485 70.7719 27.0095C71.1454 27.3705 71.6255 27.4866 72.212 27.3571C72.6344 27.2638 73.0207 27.0532 73.3703 26.7242C73.7194 26.3962 74.0253 25.9956 74.2874 25.5234C74.549 25.0519 74.7432 24.5134 74.87 23.9087C74.9954 23.304 75.0475 22.6936 75.0253 22.0774L74.9586 20.2289Z" fill="#FDEFD2"/>
<path d="M82.9385 27.7185L83.3191 26.8612C83.6998 26.0038 83.8957 25.1387 83.9054 24.266L84.0269 14.0535C84.0369 13.1809 83.8612 12.3874 83.4992 11.6737L83.1372 10.9598L90.1134 8.47918L90.0984 9.74482C90.6898 9.31137 91.3589 8.9284 92.1037 8.59518C92.8481 8.26295 93.639 8.01505 94.4742 7.8537C96.4542 7.47098 98.0721 7.71007 99.3284 8.57C100.584 9.43103 101.198 11.0247 101.171 13.3519L101.081 20.946C101.07 21.8187 101.246 22.6119 101.608 23.3256L101.97 24.0392L94.0783 25.5647L94.4593 24.7075C94.8401 23.8501 95.0359 22.9852 95.0462 22.1124L95.1379 14.3441C95.1512 13.2387 95.1078 12.3401 95.0081 11.6474C94.9076 10.956 94.7676 10.4171 94.5873 10.0307C94.407 9.64507 94.1925 9.39583 93.9478 9.2835C93.7013 9.17189 93.4403 9.14207 93.1614 9.19573C92.883 9.24976 92.5717 9.39705 92.2298 9.63712C91.8869 9.87781 91.5507 10.2407 91.2215 10.7248C90.8911 11.2097 90.6131 11.8371 90.3886 12.6056C90.1632 13.3752 90.0438 14.3271 90.0306 15.4617L89.9401 23.0991C89.9299 23.9717 90.1058 24.7652 90.4681 25.4789L90.8298 26.1925L82.9385 27.7185Z" fill="#FDEFD2"/>
<path d="M113.816 6.16093C114.827 4.51575 116.119 3.5309 117.693 3.20795C119.045 2.92986 119.94 3.24156 120.378 4.14379C120.814 5.04577 120.669 6.33389 119.94 8.00669L114.803 19.9718L115.364 21.1501L114.185 21.3921L112.806 24.5645C111.188 28.3463 109.121 30.4962 106.604 31.0135C105.661 31.2073 104.874 31.1534 104.247 30.8514C103.619 30.5491 103.196 30.0901 102.978 29.4738C102.76 28.8569 102.755 28.1463 102.963 27.3424C103.17 26.5378 103.621 25.7335 104.315 24.9297C104.816 25.3156 105.374 25.567 105.987 25.6857C106.6 25.804 107.236 25.7956 107.897 25.6599C108.777 25.479 109.66 25.0888 110.542 24.4911C111.424 23.8927 112.214 23.1192 112.908 22.1724L113.147 21.6057L108.71 22.5173L100.985 6.85743L109.811 5.04357C109.337 5.57187 109.076 6.23684 109.026 7.0376C108.975 7.83874 109.169 8.6543 109.606 9.48404L114.288 18.9565L116.809 13.0058C117.348 11.7456 117.619 10.6546 117.623 9.73352C117.625 8.81308 117.455 8.06451 117.112 7.48853C116.768 6.91243 116.297 6.51321 115.701 6.29111C115.104 6.06864 114.476 6.02476 113.816 6.16093Z" fill="#FDEFD2"/>
<path d="M14.5153 44.7921C14.2897 45.0406 14.0777 45.3667 13.8772 45.7738C13.6765 46.1802 13.5445 46.6552 13.4812 47.1973C13.418 47.7402 13.4452 48.3364 13.5645 48.9865C13.683 49.6363 13.9272 50.3339 14.2971 51.0767L25.5078 72.9347L28.1756 66.6611L16.7568 44.354L29.4594 41.8702C29.2341 42.1189 29.0221 42.445 28.8218 42.8516C28.6209 43.2583 28.4892 43.7333 28.4256 44.2752C28.3619 44.818 28.3895 45.4146 28.509 46.0646C28.6274 46.7146 28.8716 47.4117 29.2415 48.1549L40.4522 70.0128L45.5886 58.0543C46.6556 55.5205 47.0803 53.4586 46.8623 51.8691C46.6446 50.281 46.0556 49.0493 45.0953 48.1755C44.1353 47.3033 42.9399 46.7613 41.5093 46.5512C40.0786 46.3422 38.684 46.3697 37.3252 46.6355C37.3158 45.5354 37.5334 44.5243 37.9798 43.6004C38.4248 42.6777 38.9958 41.8516 39.6936 41.1232C40.3902 40.3964 41.2013 39.799 42.1279 39.3319C43.0531 38.8661 43.9921 38.5387 44.9431 38.3528C46.166 38.1139 47.3337 38.1409 48.4479 38.4323C49.5617 38.7256 50.4507 39.3165 51.1166 40.2056C51.782 41.096 52.1218 42.3248 52.1354 43.8921C52.1489 45.4608 51.6436 47.4061 50.6202 49.7269L41.2141 71.5773L42.5974 74.1829L33.0195 76.056L29.0057 68.2117L26.2695 74.4381L27.653 77.1048L18.0753 78.9781L1.8125 47.2762L14.5153 44.7921Z" fill="#FDEFD2"/>
<path d="M48.5795 59.9943C48.6117 58.0646 48.9539 56.2802 49.6098 54.642C50.2645 53.0045 51.1752 51.5424 52.3393 50.256C53.5045 48.9695 54.9005 47.9032 56.529 47.0566C58.1573 46.211 59.9598 45.6334 61.9381 45.327C63.9161 45.0204 65.7094 45.0405 67.3178 45.3841C68.9263 45.7295 70.2947 46.367 71.4224 47.2983C72.5504 48.2293 73.4156 49.4161 74.0196 50.8589C74.6233 52.3014 74.9095 53.9884 74.8775 55.9184C74.8457 57.808 74.5022 59.5814 73.8474 61.2393C73.1912 62.8984 72.2817 64.3702 71.1173 65.6564C69.9525 66.9432 68.5561 68.0104 66.9275 68.8563C65.2996 69.7017 63.4961 70.279 61.5184 70.5855C59.5401 70.892 57.7475 70.8722 56.1387 70.5286C54.5306 70.1844 53.1621 69.5457 52.0341 68.6146C50.9065 67.6833 50.0406 66.487 49.4375 65.023C48.8334 63.5602 48.5479 61.8837 48.5795 59.9943ZM57.2016 55.1557C57.1693 57.0864 57.2842 58.9217 57.5471 60.6628C57.8094 62.4042 58.1875 63.9126 58.6826 65.1878C59.1762 66.463 59.7886 67.4543 60.5162 68.1601C61.2444 68.8672 62.035 69.1537 62.8897 69.0212C65.0476 68.6868 66.1701 65.8702 66.2579 60.5724C66.2903 58.6424 66.175 56.8169 65.9122 55.0961C65.6486 53.3757 65.27 51.8876 64.7756 50.6324C64.2812 49.3784 63.6798 48.4059 62.9751 47.7164C62.2687 47.027 61.4661 46.7522 60.5675 46.8915C58.4093 47.2259 57.2874 49.9807 57.2016 55.1557Z" fill="#FDEFD2"/>
<path d="M76.0688 54.3055C76.1011 52.3606 76.4441 50.562 77.1012 48.9106C77.7571 47.26 78.6699 45.7861 79.8361 44.4897C81.0037 43.1928 82.4023 42.1182 84.0342 41.2646C85.6659 40.4124 87.4721 39.8303 89.4543 39.5213C91.4363 39.2124 93.2329 39.2324 94.8446 39.5789C96.4565 39.9271 97.8276 40.5696 98.9574 41.5085C100.088 42.447 100.954 43.643 101.56 45.0972C102.165 46.5513 102.452 48.2517 102.419 50.1973C102.388 52.1019 102.043 53.8893 101.387 55.5605C100.73 57.233 99.8184 58.7166 98.6517 60.0129C97.4845 61.3099 96.0854 62.3858 94.4536 63.2381C92.8223 64.0906 91.0152 64.6724 89.0336 64.9815C87.0513 65.2903 85.2551 65.2703 83.6432 64.924C82.0317 64.5771 80.6607 63.9334 79.5304 62.9948C78.4006 62.056 77.5327 60.8502 76.9284 59.3745C76.3231 57.9 76.0369 56.2102 76.0688 54.3055ZM84.7081 49.4285C84.6759 51.3748 84.7907 53.2243 85.0546 54.9795C85.3172 56.7346 85.696 58.2555 86.192 59.5406C86.6867 60.826 87.3002 61.825 88.0295 62.5366C88.7593 63.2495 89.5513 63.538 90.4078 63.4046C92.5699 63.0674 93.6946 60.2286 93.7828 54.8883C93.8149 52.943 93.6996 51.1028 93.4361 49.3682C93.1719 47.6341 92.7926 46.1341 92.2973 44.8692C91.8019 43.6052 91.1995 42.6247 90.4931 41.9298C89.7853 41.2348 88.9813 40.9579 88.0806 41.0982C85.9182 41.4355 84.7941 44.2122 84.7081 49.4285Z" fill="#FDEFD2"/>
<path d="M119.384 53.2302C118.759 55.2901 117.834 56.9304 116.609 58.1536C115.382 59.3781 113.989 60.1191 112.429 60.3796C111.226 60.5801 110.077 60.4695 108.985 60.0499C107.892 59.6299 106.923 58.9388 106.077 57.978C105.229 57.0183 104.549 55.7907 104.037 54.2953C103.524 52.8009 103.268 51.0553 103.268 49.0594C103.268 47.0633 103.535 45.231 104.07 43.561C104.605 41.8921 105.341 40.4387 106.277 39.2007C107.213 37.9637 108.305 36.9501 109.553 36.1587C110.801 35.3687 112.139 34.854 113.566 34.6157C114.546 34.4522 115.549 34.4202 116.575 34.5188C117.6 34.6188 118.536 34.826 119.384 35.1416V28.0309C119.384 26.7832 119.116 25.6429 118.581 24.6095L118.046 23.5761L128.077 20.28V51.0861C128.077 52.3336 128.344 53.1591 128.879 54.1925L129.414 55.2257L119.384 59.2186L119.384 53.2302ZM119.384 40.818C119.384 39.2381 119.049 37.9734 118.38 37.0245C117.712 36.0756 116.865 35.687 115.839 35.8582C114.636 36.0589 113.666 37.0006 112.93 38.6827C112.195 40.3648 111.827 42.6405 111.827 45.51C111.827 48.379 112.195 50.5943 112.93 52.1559C113.666 53.717 114.636 54.397 115.839 54.1966C116.865 54.0252 117.712 53.3022 118.38 52.0257C119.049 50.7505 119.384 49.3222 119.384 47.7415V40.818Z" fill="#FDEFD2"/>
</svg>
